<?xml version="1.0" ?><svg clip-rule="evenodd" fill-rule="evenodd" image-rendering="optimizeQuality" shape-rendering="geometricPrecision" text-rendering="geometricPrecision" viewBox="0 0 500 500" xmlns="http://www.w3.org/2000/svg"><defs><linearGradient gradientUnits="userSpaceOnUse" id="a" x1="249.999" x2="249.999" y1="40.001" y2="213.11"><stop offset="0" stop-color="#008BFF"/><stop offset="1" stop-color="#0af"/></linearGradient><linearGradient gradientUnits="userSpaceOnUse" id="b" x1="250" x2="250" y1="420.397" y2="279.594"><stop offset="0" stop-color="#008BFF"/><stop offset="1" stop-color="#0af"/></linearGradient></defs><g stroke="#434242" stroke-width="10"><circle cx="250" cy="127" fill="url(#a)" r="87"/><path d="M283 245l-25 38c-2 3-5 4-8 4s-6-1-8-4l-25-38c-2-3-5-5-9-5-54 3-97 44-97 94v116c0 6 4 10 10 10h258c6 0 10-4 10-10v-116c0-50-43-91-97-94-4 0-7 2-9 5z" fill="url(#b)"/></g></svg>